<svg width="64" height="64" xmlns="http://www.w3.org/2000/svg">
  <!-- Isometric tile base -->
  <polygon points="32,8 56,32 32,56 8,32" fill="#4a7c3f"/>
  
  <!-- Grass texture pattern (isometric grid) -->
  <polygon points="24,16 40,16 48,24 32,32 16,24" fill="#5a8c4f"/>
  <polygon points="16,24 32,32 24,40 8,32" fill="#3a6c2f"/>
  <polygon points="32,32 48,24 56,32 40,40" fill="#3a6c2f"/>
  <polygon points="24,40 40,40 48,48 16,48" fill="#5a8c4f"/>
  
  <!-- Isometric trees/bushes -->
  <ellipse cx="24" cy="20" rx="6" ry="8" fill="#2d5019" transform="rotate(-45 32 32)"/>
  <ellipse cx="40" cy="28" rx="5" ry="7" fill="#2d5019" transform="rotate(-45 32 32)"/>
  <ellipse cx="20" cy="40" rx="5" ry="7" fill="#2d5019" transform="rotate(-45 32 32)"/>
  <ellipse cx="44" cy="44" rx="6" ry="8" fill="#2d5019" transform="rotate(-45 32 32)"/>
</svg>
