<svg width="64" height="64" xmlns="http://www.w3.org/2000/svg">
  <!-- Base grass -->
  <rect width="64" height="64" fill="#4a7c3f"/>
  <!-- Grass texture pattern -->
  <rect x="0" y="0" width="16" height="16" fill="#5a8c4f"/>
  <rect x="16" y="0" width="16" height="16" fill="#3a6c2f"/>
  <rect x="32" y="0" width="16" height="16" fill="#5a8c4f"/>
  <rect x="48" y="0" width="16" height="16" fill="#3a6c2f"/>
  <rect x="0" y="16" width="16" height="16" fill="#3a6c2f"/>
  <rect x="16" y="16" width="16" height="16" fill="#5a8c4f"/>
  <rect x="32" y="16" width="16" height="16" fill="#3a6c2f"/>
  <rect x="48" y="16" width="16" height="16" fill="#5a8c4f"/>
  <rect x="0" y="32" width="16" height="16" fill="#5a8c4f"/>
  <rect x="16" y="32" width="16" height="16" fill="#3a6c2f"/>
  <rect x="32" y="32" width="16" height="16" fill="#5a8c4f"/>
  <rect x="48" y="32" width="16" height="16" fill="#3a6c2f"/>
  <rect x="0" y="48" width="16" height="16" fill="#3a6c2f"/>
  <rect x="16" y="48" width="16" height="16" fill="#5a8c4f"/>
  <rect x="32" y="48" width="16" height="16" fill="#3a6c2f"/>
  <rect x="48" y="48" width="16" height="16" fill="#5a8c4f"/>
  <!-- Small trees/bushes -->
  <circle cx="16" cy="16" r="6" fill="#2d5019"/>
  <circle cx="48" cy="20" r="5" fill="#2d5019"/>
  <circle cx="20" cy="48" r="5" fill="#2d5019"/>
  <circle cx="44" cy="44" r="6" fill="#2d5019"/>
</svg>
